<?xml version="1.0" encoding="utf-8"?>
<!-- Generator: Adobe Illustrator 17.0.0, SVG Export Plug-In . SVG Version: 6.00 Build 0)  -->
<!DOCTYPE svg PUBLIC "-//W3C//DTD SVG 1.1//EN" "http://www.w3.org/Graphics/SVG/1.1/DTD/svg11.dtd">
<svg version="1.1" id="icons" xmlns="http://www.w3.org/2000/svg" xmlns:xlink="http://www.w3.org/1999/xlink" x="0px" y="0px"
	 width="36px" height="36px" viewBox="0 0 36 36" enable-background="new 0 0 36 36" xml:space="preserve">
<g>
	<path fill="#F8F9F6" d="M11,3h14v5h3V4c0-2.206-1.794-4-4-4H12C9.794,0,8,1.794,8,4v4h3V3z"/>
	<rect x="10" y="10" fill="#F8F9F6" width="16" height="26"/>
	<path fill="#F8F9F6" d="M34,10h-6v26h6c1.104,0,2-0.896,2-2V12C36,10.896,35.104,10,34,10z"/>
	<path fill="#F8F9F6" d="M0,12v22c0,1.104,0.896,2,2,2h6V10H2C0.896,10,0,10.896,0,12z"/>
</g>
</svg>
