<?xml version="1.0" encoding="utf-8"?>
<!-- Generator: Adobe Illustrator 17.0.0, SVG Export Plug-In . SVG Version: 6.00 Build 0)  -->
<!DOCTYPE svg PUBLIC "-//W3C//DTD SVG 1.1//EN" "http://www.w3.org/Graphics/SVG/1.1/DTD/svg11.dtd">
<svg version="1.1" id="icons" xmlns="http://www.w3.org/2000/svg" xmlns:xlink="http://www.w3.org/1999/xlink" x="0px" y="0px"
	 width="34px" height="34px" viewBox="0 0 34 34" enable-background="new 0 0 34 34" xml:space="preserve">
<g>
	<path fill="#F8F9F6" d="M32,30H4V2c0-1.105-0.896-2-2-2C0.895,0,0,0.896,0,2v30c0,1.104,0.895,2,2,2h30c1.104,0,2-0.896,2-2
		S33.104,30,32,30z"/>
	<path fill="#F8F9F6" d="M6.188,27.262C6.439,27.423,6.721,27.5,6.999,27.5c0.493,0,0.977-0.243,1.263-0.69l8.175-12.716
		l4.732,3.154c0.346,0.231,0.772,0.309,1.177,0.212c0.404-0.096,0.751-0.355,0.958-0.716l5.513-9.646L33,9l-1.513-6.808
		c0.044-0.343-0.037-0.687-0.218-0.979L31,0l-1.151,0.512c-0.31,0.032-0.604,0.163-0.843,0.375L22,4l4.071,1.851l-4.576,8.01
		l-4.663-3.108c-0.335-0.223-0.745-0.302-1.139-0.22c-0.394,0.082-0.737,0.319-0.955,0.657l-9,14.001
		C5.29,25.886,5.492,26.815,6.188,27.262z"/>
</g>
</svg>
