<?xml version="1.0" encoding="utf-8"?>
<!-- Generator: Adobe Illustrator 17.0.0, SVG Export Plug-In . SVG Version: 6.00 Build 0)  -->
<!DOCTYPE svg PUBLIC "-//W3C//DTD SVG 1.1//EN" "http://www.w3.org/Graphics/SVG/1.1/DTD/svg11.dtd">
<svg version="1.1" id="icons" xmlns="http://www.w3.org/2000/svg" xmlns:xlink="http://www.w3.org/1999/xlink" x="0px" y="0px"
	 width="38.353px" height="38.353px" viewBox="0 0 38.353 38.353" enable-background="new 0 0 38.353 38.353" xml:space="preserve">
<g>
	<path fill="#F8F9F6" d="M31.998,32.176h-28v-28c0-1.104-0.896-2-2-2c-1.105,0-2,0.895-2,2v30c0,1.104,0.895,2,2,2h30
		c1.104,0,2-0.896,2-2S33.102,32.176,31.998,32.176z"/>
	<path fill="#F8F9F6" d="M37.92,6.556c-0.21-0.212-0.468-0.348-0.74-0.408c-0.482-0.107-1.006,0.026-1.382,0.4L25.069,17.198
		l-3.938-4.102c-0.288-0.3-0.687-0.468-1.103-0.461c-0.415,0.006-0.81,0.184-1.09,0.492l-7.467,8.227l-3.675-2.762l0.006,6.974
		c-0.117,0.325-0.112,0.679,0.001,1.002l0.001,1.243l1.235-0.251c0.31,0.036,0.625-0.028,0.904-0.184l7.513-1.526l-3.575-2.687
		l6.199-6.832l3.881,4.043c0.279,0.29,0.662,0.456,1.064,0.461c0.402,0.005,0.789-0.152,1.075-0.435L37.912,8.677
		C38.5,8.094,38.503,7.143,37.92,6.556z"/>
</g>
</svg>
