<?xml version="1.0" encoding="utf-8"?>
<!-- Generator: Adobe Illustrator 17.0.0, SVG Export Plug-In . SVG Version: 6.00 Build 0)  -->
<!DOCTYPE svg PUBLIC "-//W3C//DTD SVG 1.1//EN" "http://www.w3.org/Graphics/SVG/1.1/DTD/svg11.dtd">
<svg version="1.1" id="icons" xmlns="http://www.w3.org/2000/svg" xmlns:xlink="http://www.w3.org/1999/xlink" x="0px" y="0px"
	 width="38.353px" height="38.353px" viewBox="0 0 38.353 38.353" enable-background="new 0 0 38.353 38.353" xml:space="preserve">
<g>
	<path fill="#F8F9F6" d="M31.998,32.176h-28v-28c0-1.104-0.896-2-2-2c-1.105,0-2,0.895-2,2v30c0,1.104,0.895,2,2,2h30
		c1.104,0,2-0.896,2-2S33.102,32.176,31.998,32.176z"/>
	<path fill="#F8F9F6" d="M6.691,2.826C6.544,3.071,6.475,3.349,6.477,3.627c0.003,0.492,0.229,0.98,0.641,1.278l11.727,8.511
		l-2.866,4.622c-0.21,0.338-0.278,0.76-0.187,1.166c0.09,0.405,0.33,0.758,0.663,0.975l8.891,5.771l-1.721,4.114l6.241-1.31
		c0.315,0.054,0.631-0.017,0.897-0.188l1.112-0.233l-0.477-1.162c-0.031-0.31-0.153-0.607-0.35-0.85l-2.902-7.069l-1.674,4.002
		l-7.383-4.79l2.825-4.555c0.203-0.327,0.273-0.733,0.195-1.128c-0.078-0.394-0.297-0.744-0.609-0.971L8.591,2.437
		C7.949,1.971,7.097,2.146,6.691,2.826z"/>
</g>
</svg>
