<?xml version="1.0" encoding="utf-8"?>
<!-- Generator: Adobe Illustrator 17.0.0, SVG Export Plug-In . SVG Version: 6.00 Build 0)  -->
<!DOCTYPE svg PUBLIC "-//W3C//DTD SVG 1.1//EN" "http://www.w3.org/Graphics/SVG/1.1/DTD/svg11.dtd">
<svg version="1.1" id="Layer_1" xmlns="http://www.w3.org/2000/svg" xmlns:xlink="http://www.w3.org/1999/xlink" x="0px" y="0px"
	 width="387.496px" height="387.496px" viewBox="30.252 38.252 387.496 387.496"
	 enable-background="new 30.252 38.252 387.496 387.496" xml:space="preserve">
<path fill="#286FA2" d="M417.75,141.5c0,6.667-2.333,12.333-7,17l-215,215c-4.667,4.667-10.333,7-17,7s-12.333-2.333-17-7L37.25,249
	c-4.667-4.667-7-10.333-7-17s2.333-12.333,7-17l34-34c4.667-4.667,10.333-7,17-7s12.333,2.333,17,7l73.5,73.75l164-164.25
	c4.667-4.667,10.333-7,17-7s12.333,2.333,17,7l34,34C415.417,129.167,417.75,134.833,417.75,141.5z"/>
</svg>
