<?xml version="1.0" encoding="utf-8"?>
<!-- Generator: Adobe Illustrator 17.0.0, SVG Export Plug-In . SVG Version: 6.00 Build 0)  -->
<!DOCTYPE svg PUBLIC "-//W3C//DTD SVG 1.1//EN" "http://www.w3.org/Graphics/SVG/1.1/DTD/svg11.dtd">
<svg version="1.1" id="icons" xmlns="http://www.w3.org/2000/svg" xmlns:xlink="http://www.w3.org/1999/xlink" x="0px" y="0px"
	 width="30.983px" height="30.983px" viewBox="0 0 30.983 30.983" enable-background="new 0 0 30.983 30.983" xml:space="preserve">
<g>
	<path fill="#F8F9F6" d="M30.337,14.19L26.674,0.942c-0.031-0.111-0.081-0.217-0.148-0.311c-0.168-0.238-0.602-0.638-1.621-0.638
		c-0.922,0-2.194,0.329-3.781,0.978c-1.39,0.568-2.079,0.79-2.457,0.79c-0.168,0-0.317-0.046-0.639-0.149
		c-0.5-0.161-1.257-0.404-2.646-0.549c-0.202-0.021-0.404-0.031-0.607-0.031c-3.939,0-7.786,3.872-7.947,4.037
		c-0.25,0.254-0.345,0.622-0.25,0.966l3.644,13.207c0.095,0.344,0.365,0.611,0.71,0.702c0.084,0.021,0.169,0.032,0.253,0.032
		c0.263,0,0.52-0.104,0.71-0.296c0.033-0.032,3.37-3.345,6.461-3.345c0.137,0,0.274,0.007,0.411,0.021
		c1.065,0.111,1.691,0.24,2.194,0.344c0.458,0.095,0.821,0.169,1.254,0.169c0.768,0,1.59-0.242,3.259-0.822
		c1.883-0.653,2.801-0.751,3.18-0.751c0.092,0,0.155,0.006,0.192,0.012c0.159,0.098,0.342,0.149,0.527,0.149
		c0.153,0,0.309-0.035,0.453-0.108C30.25,15.132,30.463,14.648,30.337,14.19z"/>
	<path fill="#F8F9F6" d="M4.319,6.41C4.088,5.586,3.341,5.02,2.5,5.02c-0.173,0-0.346,0.023-0.514,0.071
		c-1,0.28-1.587,1.324-1.307,2.326l5.946,22.182c0.232,0.823,0.979,1.391,1.821,1.391c0.171,0,0.343-0.023,0.509-0.07
		c1.002-0.281,1.589-1.325,1.309-2.327L4.319,6.41z"/>
</g>
</svg>
