<?xml version="1.0" encoding="utf-8"?>
<!-- Generator: Adobe Illustrator 17.0.0, SVG Export Plug-In . SVG Version: 6.00 Build 0)  -->
<!DOCTYPE svg PUBLIC "-//W3C//DTD SVG 1.1//EN" "http://www.w3.org/Graphics/SVG/1.1/DTD/svg11.dtd">
<svg version="1.1" id="icons" xmlns="http://www.w3.org/2000/svg" xmlns:xlink="http://www.w3.org/1999/xlink" x="0px" y="0px"
	 width="32.202px" height="32.202px" viewBox="0 0 32.202 32.202" enable-background="new 0 0 32.202 32.202" xml:space="preserve">
<path fill="#F8F9F6" d="M30.995,14.417l-14-14.211c-0.563-0.281-1.226-0.281-1.789,0l-14,14.211
	c-0.83,0.415-1.265,1.346-1.052,2.249c0.213,0.902,1.019,1.54,1.946,1.54h3v12c0,1.104,0.896,2,2,2h18c1.104,0,2-0.896,2-2v-12h3
	c0.928,0,1.733-0.638,1.946-1.54C32.261,15.763,31.825,14.832,30.995,14.417z M19.101,26.206h-6v-7h6V26.206z"/>
</svg>
