<?xml version="1.0" encoding="utf-8"?>
<!-- Generator: Adobe Illustrator 17.0.0, SVG Export Plug-In . SVG Version: 6.00 Build 0)  -->
<!DOCTYPE svg PUBLIC "-//W3C//DTD SVG 1.1//EN" "http://www.w3.org/Graphics/SVG/1.1/DTD/svg11.dtd">
<svg version="1.1" id="icons" xmlns="http://www.w3.org/2000/svg" xmlns:xlink="http://www.w3.org/1999/xlink" x="0px" y="0px"
	 width="38px" height="38.013px" viewBox="0 0 38 38.013" enable-background="new 0 0 38 38.013" xml:space="preserve">
<g>
	<path fill="#F8F9F6" d="M36,2.324h-6c0-1.104-0.896-2-2-2H10c-1.105,0-2,0.896-2,2H2c-1.105,0-2,0.895-2,2s0.896,2,2,2v21
		c0,1.104,0.895,2,2,2h10.172l-4.95,4.95c-0.781,0.781-0.781,2.047,0,2.829c0.781,0.781,2.048,0.781,2.828,0l6.95-6.95l6.95,6.95
		c0.78,0.781,2.047,0.781,2.828,0c0.781-0.781,0.781-2.047,0-2.829l-4.95-4.95H34c1.104,0,2-0.896,2-2v-21c1.104,0,2-0.896,2-2
		S37.104,2.324,36,2.324z M34,8.016v17.616c0,0.935-0.796,1.692-1.777,1.692H5.777C4.796,27.324,4,26.567,4,25.632V8.016
		c0-0.935,0.796-1.692,1.777-1.692h26.445C33.204,6.324,34,7.082,34,8.016z"/>
	<path fill="#F8F9F6" d="M13,25.324c1.104,0,2-0.896,2-2v-8c0-1.104-0.896-2-2-2c-1.105,0-2,0.896-2,2v8
		C11,24.429,11.895,25.324,13,25.324z"/>
	<path fill="#F8F9F6" d="M19,25.324c1.104,0,2-0.896,2-2v-12c0-1.104-0.896-2-2-2c-1.105,0-2,0.896-2,2v12
		C17,24.429,17.895,25.324,19,25.324z"/>
	<path fill="#F8F9F6" d="M25,25.324c1.104,0,2-0.896,2-2v-5c0-1.104-0.896-2-2-2c-1.105,0-2,0.896-2,2v5
		C23,24.429,23.895,25.324,25,25.324z"/>
</g>
</svg>
